<svg width="100" height="100" viewBox="0 0 100 100" fill="none" xmlns="http://www.w3.org/2000/svg">
<rect width="100" height="100" rx="20" fill="#1D1D1B"/>
<path d="M32.328 71.57C29.668 71.57 27.331 71.076 25.317 70.088C23.341 69.062 21.802 67.637 20.7 65.813C19.636 63.951 19.104 61.766 19.104 59.258V41.132C19.104 38.586 19.636 36.401 20.7 34.577C21.802 32.753 23.341 31.347 25.317 30.359C27.331 29.333 29.668 28.82 32.328 28.82C35.026 28.82 37.344 29.333 39.282 30.359C41.258 31.347 42.797 32.753 43.899 34.577C45.001 36.401 45.552 38.586 45.552 41.132H38.37C38.37 39.156 37.838 37.655 36.774 36.629C35.748 35.603 34.266 35.09 32.328 35.09C30.39 35.09 28.889 35.603 27.825 36.629C26.761 37.655 26.229 39.137 26.229 41.075V59.258C26.229 61.196 26.761 62.697 27.825 63.761C28.889 64.787 30.39 65.3 32.328 65.3C34.266 65.3 35.748 64.787 36.774 63.761C37.838 62.697 38.37 61.196 38.37 59.258H45.552C45.552 61.728 45.001 63.894 43.899 65.756C42.797 67.618 41.258 69.062 39.282 70.088C37.344 71.076 35.026 71.57 32.328 71.57ZM53.5097 71V29.39H66.6767C69.4507 29.39 71.8447 29.903 73.8587 30.929C75.9107 31.955 77.5067 33.399 78.6467 35.261C79.7867 37.085 80.3567 39.251 80.3567 41.759C80.3567 44.495 79.6537 46.908 78.2477 48.998C76.8797 51.088 75.0177 52.57 72.6617 53.444L80.9267 71H72.9467L65.7077 54.47H60.6347V71H53.5097ZM60.6347 48.2H66.6767C68.6907 48.2 70.2677 47.649 71.4077 46.547C72.5477 45.445 73.1177 43.925 73.1177 41.987C73.1177 40.011 72.5477 38.472 71.4077 37.37C70.2677 36.23 68.6907 35.66 66.6767 35.66H60.6347V48.2Z" fill="white"/>
</svg>
